<svg width="10" height="10" viewBox="0 0 10 10" fill="none" xmlns="http://www.w3.org/2000/svg">
<path fill-rule="evenodd" clip-rule="evenodd" d="M1.66667 0.277778C1.66667 0.204107 1.69593 0.133453 1.74803 0.0813593C1.80012 0.0292658 1.87077 0 1.94444 0H8.05556C8.12923 0 8.19988 0.0292658 8.25198 0.0813593C8.30407 0.133453 8.33333 0.204107 8.33333 0.277778V0.555556H9.72222C9.79589 0.555556 9.86655 0.584821 9.91864 0.636915C9.97073 0.689008 10 0.759662 10 0.833333V2.5C10 2.86836 9.85367 3.22163 9.5932 3.48209C9.33274 3.74256 8.97947 3.88889 8.61111 3.88889H8.14361C7.71556 5.1 6.6075 5.99 5.27778 6.09972V7.77778H7.22222C7.29589 7.77778 7.36655 7.80704 7.41864 7.85914C7.47073 7.91123 7.5 7.98188 7.5 8.05556V9.72222C7.5 9.79589 7.47073 9.86655 7.41864 9.91864C7.36655 9.97073 7.29589 10 7.22222 10H2.77778C2.70411 10 2.63345 9.97073 2.58136 9.91864C2.52927 9.86655 2.5 9.79589 2.5 9.72222V8.05556C2.5 7.98188 2.52927 7.91123 2.58136 7.85914C2.63345 7.80704 2.70411 7.77778 2.77778 7.77778H4.72222V6.09972C3.39278 5.99 2.28444 5.1 1.85639 3.88889H1.38889C1.02053 3.88889 0.667263 3.74256 0.406796 3.48209C0.146329 3.22163 0 2.86836 0 2.5V0.833333C0 0.759662 0.0292658 0.689008 0.0813593 0.636915C0.133453 0.584821 0.204107 0.555556 0.277778 0.555556H1.66667V0.277778ZM7.77778 2.77778V0.555556H2.22222V2.77778C2.22222 4.31194 3.46583 5.55556 5 5.55556C6.53417 5.55556 7.77778 4.31194 7.77778 2.77778ZM8.33333 1.11111V3.33333H8.61111C8.83213 3.33333 9.04409 3.24554 9.20037 3.08926C9.35665 2.93298 9.44444 2.72101 9.44444 2.5V1.11111H8.33333ZM0.555556 1.11111H1.66667V3.33333H1.38889C1.16788 3.33333 0.955913 3.24554 0.799633 3.08926C0.643353 2.93298 0.555556 2.72101 0.555556 2.5V1.11111ZM3.05556 8.33333V9.44444H6.94444V8.33333H3.05556Z" fill="black"/>
</svg>
