<svg width="37" height="29" viewBox="0 0 37 29" fill="none" xmlns="http://www.w3.org/2000/svg">
<circle cx="20" cy="15" r="14" fill="#2F80ED"/>
<path d="M17.6248 18.3243C17.518 18.4245 17.3911 18.5039 17.2514 18.5582C17.1117 18.6124 16.962 18.6403 16.8107 18.6404H15.1797V17.1237C15.1797 16.838 15.3011 16.5638 15.5169 16.3618M17.6248 18.3243L15.5169 16.3618M17.6248 18.3243L21.8296 14.3875M15.5169 16.3618L19.7259 12.4183L20.3271 11.8548C20.4341 11.7546 20.5611 11.675 20.7009 11.6207C20.8408 11.5664 20.9907 11.5385 21.1421 11.5384C21.2935 11.5384 21.4434 11.5663 21.5833 11.6205C21.7232 11.6747 21.8503 11.7542 21.9573 11.8544L22.432 12.2991C22.648 12.5013 22.7694 12.7756 22.7694 13.0616C22.7694 13.3476 22.648 13.6218 22.432 13.8241L21.8296 14.3875M21.8296 14.3875L19.7255 12.4183" stroke="white" stroke-width="1.5" stroke-linecap="round" stroke-linejoin="round"/>
</svg>
