<svg width="15" height="15" viewBox="0 0 15 15" fill="none" xmlns="http://www.w3.org/2000/svg">
<path d="M7.5 0C7.7815 0 8.059 0.0152501 8.3325 0.0457501C8.4304 0.0565841 8.52521 0.0865949 8.61151 0.134069C8.69781 0.181543 8.77392 0.245551 8.83548 0.322438C8.89705 0.399325 8.94287 0.487585 8.97032 0.58218C8.99778 0.676774 9.00633 0.77585 8.9955 0.87375C8.98467 0.97165 8.95465 1.06646 8.90718 1.15276C8.85971 1.23906 8.7957 1.31517 8.71881 1.37673C8.64192 1.4383 8.55366 1.48412 8.45907 1.51157C8.36448 1.53903 8.2654 1.54758 8.1675 1.53675C6.93153 1.39848 5.68314 1.6477 4.59501 2.24994C3.50687 2.85218 2.63277 3.77767 2.0936 4.8984C1.55443 6.01913 1.37685 7.2797 1.58542 8.50577C1.79399 9.73183 2.37839 10.8628 3.2578 11.7422C4.13722 12.6216 5.26817 13.206 6.49423 13.4146C7.7203 13.6231 8.98087 13.4456 10.1016 12.9064C11.2223 12.3672 12.1478 11.4931 12.7501 10.405C13.3523 9.31686 13.6015 8.06847 13.4633 6.8325C13.4524 6.7346 13.461 6.63552 13.4884 6.54093C13.5159 6.44634 13.5617 6.35808 13.6233 6.28119C13.7476 6.12591 13.9285 6.02638 14.1262 6.0045C14.324 5.98262 14.5223 6.04018 14.6776 6.16452C14.7544 6.22608 14.8185 6.30219 14.8659 6.38849C14.9134 6.47479 14.9434 6.5696 14.9542 6.6675C14.9842 6.941 14.9995 7.2185 15 7.5C15 11.6422 11.6422 15 7.5 15C3.35775 15 0 11.6422 0 7.5C0 3.35775 3.35775 0 7.5 0ZM7.476 4.40775C7.52543 4.60029 7.4964 4.80458 7.39528 4.97573C7.29417 5.14688 7.12924 5.27088 6.93675 5.3205C6.4079 5.45903 5.94753 5.78525 5.64153 6.23828C5.33553 6.69131 5.20481 7.2402 5.27378 7.78252C5.34274 8.32485 5.60666 8.82355 6.0163 9.18558C6.42594 9.54761 6.95331 9.74823 7.5 9.75C7.99898 9.75021 8.48387 9.58455 8.87841 9.27907C9.27295 8.97359 9.55476 8.54563 9.6795 8.0625C9.73266 7.87377 9.85762 7.71336 10.0276 7.61563C10.1976 7.51791 10.3991 7.49064 10.589 7.53967C10.7788 7.5887 10.9419 7.71013 11.0433 7.87795C11.1447 8.04577 11.1764 8.24663 11.1315 8.4375C10.9014 9.31945 10.3581 10.0875 9.60312 10.5981C8.8481 11.1087 7.93302 11.327 7.02882 11.2121C6.12462 11.0973 5.29315 10.6572 4.68975 9.97405C4.08636 9.29091 3.7523 8.41146 3.75 7.5C3.74987 6.66854 4.02608 5.86062 4.53519 5.20325C5.0443 4.54589 5.75744 4.07636 6.5625 3.8685C6.65789 3.84391 6.75719 3.83836 6.85472 3.85216C6.95226 3.86595 7.04612 3.89882 7.13095 3.9489C7.21578 3.99898 7.28991 4.06527 7.34912 4.144C7.40832 4.22273 7.45144 4.31235 7.476 4.40775ZM12.378 0.0952501C12.5149 0.152009 12.6319 0.248053 12.7143 0.371257C12.7966 0.494461 12.8406 0.639303 12.8408 0.7875V2.16H14.2125C14.3608 2.16003 14.5058 2.20404 14.6291 2.28645C14.7524 2.36886 14.8485 2.48598 14.9053 2.62301C14.962 2.76003 14.9769 2.91081 14.9479 3.05627C14.919 3.20174 14.8476 3.33536 14.7427 3.44025L12.09 6.09C11.9494 6.23066 11.7586 6.30971 11.5598 6.30975H9.75L8.379 7.6815C8.23827 7.82223 8.0474 7.90129 7.84838 7.90129C7.64935 7.90129 7.45848 7.82223 7.31775 7.6815C7.17702 7.54077 7.09796 7.3499 7.09796 7.15088C7.09796 6.95185 7.17702 6.76098 7.31775 6.62025L8.6895 5.25V3.4395C8.68954 3.2406 8.76859 3.04987 8.90925 2.90925L11.5605 0.25725C11.6654 0.1523 11.799 0.0808188 11.9446 0.0518485C12.0901 0.0228783 12.2409 0.0377213 12.378 0.0944999M11.3408 2.59725L10.1895 3.75V4.8105H11.25L12.402 3.65925H12.0908C11.8918 3.65925 11.7011 3.58023 11.5604 3.43958C11.4198 3.29893 11.3408 3.10816 11.3408 2.90925V2.59725Z" fill="#434242"/>
</svg>
